<?xml version="1.0" encoding="UTF-8" standalone="no"?>
<svg
   height="72"
   viewBox="0 0 72 72"
   width="72"
   version="1.1"
   id="svg2"
   sodipodi:docname="linkedin.svg"
   inkscape:version="1.3 (0e150ed6c4, 2023-07-21)"
   xmlns:inkscape="http://www.inkscape.org/namespaces/inkscape"
   xmlns:sodipodi="http://sodipodi.sourceforge.net/DTD/sodipodi-0.dtd"
   xmlns="http://www.w3.org/2000/svg"
   xmlns:svg="http://www.w3.org/2000/svg">
  <defs
     id="defs2" />
  <sodipodi:namedview
     id="namedview2"
     pagecolor="#ffffff"
     bordercolor="#000000"
     borderopacity="0.25"
     inkscape:showpageshadow="2"
     inkscape:pageopacity="0.0"
     inkscape:pagecheckerboard="true"
     inkscape:deskcolor="#d1d1d1"
     showgrid="false"
     inkscape:zoom="23.613294"
     inkscape:cx="38.474089"
     inkscape:cy="21.682701"
     inkscape:window-width="2558"
     inkscape:window-height="1412"
     inkscape:window-x="0"
     inkscape:window-y="0"
     inkscape:window-maximized="1"
     inkscape:current-layer="svg2">
    <inkscape:grid
       id="grid23"
       units="px"
       originx="0"
       originy="0"
       spacingx="1"
       spacingy="1"
       empcolor="#0099e5"
       empopacity="0.30196078"
       color="#0099e5"
       opacity="0.14901961"
       empspacing="5"
       dotted="false"
       gridanglex="30"
       gridanglez="30"
       visible="false" />
  </sodipodi:namedview>
  <g
     fill="none"
     fill-rule="evenodd"
     id="g2">
    <path
       id="path1"
       d="M 8 0 C 3.5817264 8.1162369e-16 0 3.5817264 0 8 L 0 64 C 5.4108246e-16 68.418274 3.5817264 72 8 72 L 64 72 C 68.418274 72 72 68.418274 72 64 L 72 8 C 72 3.5817264 68.418274 -1.1842367e-15 64 0 L 8 0 z M 16.349609 10 C 19.856897 10 22.697266 12.863838 22.697266 16.396484 C 22.697266 19.929131 19.856897 22.794922 16.349609 22.794922 C 12.842321 22.794922 10 19.929131 10 16.396484 C 10 12.863838 12.842321 10 16.349609 10 z M 49.382812 26.273438 C 56.73593 26.273438 62 30.764049 62 40.050781 L 62 62 L 51.316406 62 L 51.316406 43.802734 C 51.316406 38.813379 49.419788 36.025391 45.470703 36.025391 C 41.174614 36.025391 38.929687 38.926735 38.929688 43.802734 L 38.929688 62 L 28.632812 62 L 28.632812 27.333984 L 38.929688 27.333984 L 38.929688 32.001953 C 38.929688 32.001953 42.026309 26.273437 49.382812 26.273438 z M 11.033203 27.333984 L 21.769531 27.333984 L 21.769531 62 L 11.033203 62 L 11.033203 27.333984 z "
       inkscape:label="path1"
       style="fill:#ffffff;fill-opacity:1" />
  </g>
</svg>
